<?xml version="1.0" encoding="utf-8"?>
<!-- Generator: Adobe Illustrator 17.0.0, SVG Export Plug-In . SVG Version: 6.00 Build 0)  -->
<!DOCTYPE svg PUBLIC "-//W3C//DTD SVG 1.1//EN" "http://www.w3.org/Graphics/SVG/1.1/DTD/svg11.dtd">
<svg version="1.1" id="Layer_1" xmlns="http://www.w3.org/2000/svg" xmlns:xlink="http://www.w3.org/1999/xlink" x="0px" y="0px"
	 width="114.274px" height="125.423px" viewBox="0 0 114.274 125.423" enable-background="new 0 0 114.274 125.423"
	 xml:space="preserve">
<g>
	<path fill-rule="evenodd" clip-rule="evenodd" fill="#333333" d="M57.139,125.423c4.279-2.97,26.66-17.294,31.238-20.522
		c15.599-10.218,25.897-27.791,25.897-47.754c0-31.447-25.543-56.969-57.135-57.146C25.545,0.177,0,25.699,0,57.146
		C0,77.109,10.293,94.683,25.893,104.9C30.477,108.129,52.859,122.453,57.139,125.423z"/>
	<path fill-rule="evenodd" clip-rule="evenodd" fill="#FFFFFF" d="M90.465,72.7v-5.938H79.138v-0.109
		c1.292-1.339,9.707-12.279,11.327-14.385v-4.709H63.573L60.56,59.932c-0.361,1.482-1.171,4.525-1.171,4.525
		c-0.305-1.324-0.945-3.043-1.359-4.477l-3.775-12.306h-7.784c0.13-0.7,0.198-1.447,0.198-2.235c0-4.736-3.979-8.072-11.116-8.072
		c-4.218,0-9.538,1.012-11.743,2.106v5.715c1.511-0.979,7.259-2.331,9.934-2.331c3.36,0,4.965,1.787,4.965,4.186
		c0,3.391-3.312,4.621-5.946,4.621h-2.836v5.483l2.939,0.007c4.206,0,7.511,1.543,7.511,5.015c0,2.562-2.069,4.594-6.151,4.594
		c-3.075,0-8.715-2.188-10.415-3.078v6.788c1.755,0.719,5.184,2.65,14.117,2.229c6.517-0.986,10.306-5.056,10.306-10.104
		c0-4.593-3.129-7.61-7.013-8.316v-0.096c2.36-0.938,4.047-2.705,4.877-5.096l8.729,21.465c0.258,0.612,0.312,0.972,0.312,1.277
		c0,0.306-0.157,0.715-0.415,1.122c-0.728,1.222-4.469,5.816-9.116,6.794c1.81,1.209,3.654,2.242,6.055,3.819
		c1.714-0.461,3.728-1.386,5.646-3.059c2.844-2.499,5.271-6.434,8.885-16.388l3.904-10.887l11.136-0.007v0.115
		C79.852,54.924,69.43,68.297,69.43,68.297V72.7H90.465z"/>
</g>
</svg>
